<svg xmlns="http://www.w3.org/2000/svg" version="1.1" xmlns:xlink="http://www.w3.org/1999/xlink" xmlns:svgjs="http://svgjs.dev/svgjs" viewBox="0 0 800 800"><defs><linearGradient gradientTransform="rotate(270)" x1="50%" y1="0%" x2="50%" y2="100%" id="sssquiggly-grad"><stop stop-color="hsl(206, 75%, 49%)" stop-opacity="1" offset="0%"></stop><stop stop-color="hsl(331, 90%, 56%)" stop-opacity="1" offset="100%"></stop></linearGradient></defs><g stroke-width="2" stroke="url(#sssquiggly-grad)" fill="none" stroke-linecap="round" transform="matrix(1,0,0,1,0,57.39841842651367)"><path d="M10,10C21.805555555555557,12.916666666666668,40.97222222222223,30.041666666666664,66.66666666666667,24C92.36111111111111,17.958333333333336,105.55555555555557,-19.208333333333332,133.33333333333334,-19C161.11111111111111,-18.791666666666668,172.22222222222223,26.25,200,25C227.77777777777777,23.75,238.8888888888889,-27.708333333333332,266.6666666666667,-25C294.44444444444446,-22.291666666666668,305.5555555555556,36.125,333.33333333333337,38C361.11111111111114,39.875,372.22222222222223,-16.833333333333332,400,-16C427.77777777777777,-15.166666666666666,438.8888888888889,43.25,466.6666666666667,42C494.44444444444446,40.75,505.5555555555556,-22.625,533.3333333333334,-22C561.1111111111111,-21.375,572.2222222222222,40.416666666666664,600,45C627.7777777777778,49.583333333333336,638.8888888888889,1.25,666.6666666666667,0C694.4444444444446,-1.25,707.6388888888889,36.916666666666664,733.3333333333334,39C759.0277777777778,41.083333333333336,778.1944444444445,16.041666666666664,790,10"></path><path d="M10,10C21.805555555555557,12.916666666666668,40.97222222222223,30.041666666666664,66.66666666666667,24C92.36111111111111,17.958333333333336,105.55555555555557,-19.208333333333332,133.33333333333334,-19C161.11111111111111,-18.791666666666668,172.22222222222223,26.25,200,25C227.77777777777777,23.75,238.8888888888889,-27.708333333333332,266.6666666666667,-25C294.44444444444446,-22.291666666666668,305.5555555555556,36.125,333.33333333333337,38C361.11111111111114,39.875,372.22222222222223,-16.833333333333332,400,-16C427.77777777777777,-15.166666666666666,438.8888888888889,43.25,466.6666666666667,42C494.44444444444446,40.75,505.5555555555556,-22.625,533.3333333333334,-22C561.1111111111111,-21.375,572.2222222222222,40.416666666666664,600,45C627.7777777777778,49.583333333333336,638.8888888888889,1.25,666.6666666666667,0C694.4444444444446,-1.25,707.6388888888889,36.916666666666664,733.3333333333334,39C759.0277777777778,41.083333333333336,778.1944444444445,16.041666666666664,790,10" transform="matrix(1,0,0,1,0,665)"></path><path d="M10,10C21.805555555555557,12.916666666666668,40.97222222222223,30.041666666666664,66.66666666666667,24C92.36111111111111,17.958333333333336,105.55555555555557,-19.208333333333332,133.33333333333334,-19C161.11111111111111,-18.791666666666668,172.22222222222223,26.25,200,25C227.77777777777777,23.75,238.8888888888889,-27.708333333333332,266.6666666666667,-25C294.44444444444446,-22.291666666666668,305.5555555555556,36.125,333.33333333333337,38C361.11111111111114,39.875,372.22222222222223,-16.833333333333332,400,-16C427.77777777777777,-15.166666666666666,438.8888888888889,43.25,466.6666666666667,42C494.44444444444446,40.75,505.5555555555556,-22.625,533.3333333333334,-22C561.1111111111111,-21.375,572.2222222222222,40.416666666666664,600,45C627.7777777777778,49.583333333333336,638.8888888888889,1.25,666.6666666666667,0C694.4444444444446,-1.25,707.6388888888889,36.916666666666664,733.3333333333334,39C759.0277777777778,41.083333333333336,778.1944444444445,16.041666666666664,790,10" transform="matrix(1,0,0,1,0,630)"></path><path d="M10,10C21.805555555555557,12.916666666666668,40.97222222222223,30.041666666666664,66.66666666666667,24C92.36111111111111,17.958333333333336,105.55555555555557,-19.208333333333332,133.33333333333334,-19C161.11111111111111,-18.791666666666668,172.22222222222223,26.25,200,25C227.77777777777777,23.75,238.8888888888889,-27.708333333333332,266.6666666666667,-25C294.44444444444446,-22.291666666666668,305.5555555555556,36.125,333.33333333333337,38C361.11111111111114,39.875,372.22222222222223,-16.833333333333332,400,-16C427.77777777777777,-15.166666666666666,438.8888888888889,43.25,466.6666666666667,42C494.44444444444446,40.75,505.5555555555556,-22.625,533.3333333333334,-22C561.1111111111111,-21.375,572.2222222222222,40.416666666666664,600,45C627.7777777777778,49.583333333333336,638.8888888888889,1.25,666.6666666666667,0C694.4444444444446,-1.25,707.6388888888889,36.916666666666664,733.3333333333334,39C759.0277777777778,41.083333333333336,778.1944444444445,16.041666666666664,790,10" transform="matrix(1,0,0,1,0,595)"></path><path d="M10,10C21.805555555555557,12.916666666666668,40.97222222222223,30.041666666666664,66.66666666666667,24C92.36111111111111,17.958333333333336,105.55555555555557,-19.208333333333332,133.33333333333334,-19C161.11111111111111,-18.791666666666668,172.22222222222223,26.25,200,25C227.77777777777777,23.75,238.8888888888889,-27.708333333333332,266.6666666666667,-25C294.44444444444446,-22.291666666666668,305.5555555555556,36.125,333.33333333333337,38C361.11111111111114,39.875,372.22222222222223,-16.833333333333332,400,-16C427.77777777777777,-15.166666666666666,438.8888888888889,43.25,466.6666666666667,42C494.44444444444446,40.75,505.5555555555556,-22.625,533.3333333333334,-22C561.1111111111111,-21.375,572.2222222222222,40.416666666666664,600,45C627.7777777777778,49.583333333333336,638.8888888888889,1.25,666.6666666666667,0C694.4444444444446,-1.25,707.6388888888889,36.916666666666664,733.3333333333334,39C759.0277777777778,41.083333333333336,778.1944444444445,16.041666666666664,790,10" transform="matrix(1,0,0,1,0,560)"></path><path d="M10,10C21.805555555555557,12.916666666666668,40.97222222222223,30.041666666666664,66.66666666666667,24C92.36111111111111,17.958333333333336,105.55555555555557,-19.208333333333332,133.33333333333334,-19C161.11111111111111,-18.791666666666668,172.22222222222223,26.25,200,25C227.77777777777777,23.75,238.8888888888889,-27.708333333333332,266.6666666666667,-25C294.44444444444446,-22.291666666666668,305.5555555555556,36.125,333.33333333333337,38C361.11111111111114,39.875,372.22222222222223,-16.833333333333332,400,-16C427.77777777777777,-15.166666666666666,438.8888888888889,43.25,466.6666666666667,42C494.44444444444446,40.75,505.5555555555556,-22.625,533.3333333333334,-22C561.1111111111111,-21.375,572.2222222222222,40.416666666666664,600,45C627.7777777777778,49.583333333333336,638.8888888888889,1.25,666.6666666666667,0C694.4444444444446,-1.25,707.6388888888889,36.916666666666664,733.3333333333334,39C759.0277777777778,41.083333333333336,778.1944444444445,16.041666666666664,790,10" transform="matrix(1,0,0,1,0,525)"></path><path d="M10,10C21.805555555555557,12.916666666666668,40.97222222222223,30.041666666666664,66.66666666666667,24C92.36111111111111,17.958333333333336,105.55555555555557,-19.208333333333332,133.33333333333334,-19C161.11111111111111,-18.791666666666668,172.22222222222223,26.25,200,25C227.77777777777777,23.75,238.8888888888889,-27.708333333333332,266.6666666666667,-25C294.44444444444446,-22.291666666666668,305.5555555555556,36.125,333.33333333333337,38C361.11111111111114,39.875,372.22222222222223,-16.833333333333332,400,-16C427.77777777777777,-15.166666666666666,438.8888888888889,43.25,466.6666666666667,42C494.44444444444446,40.75,505.5555555555556,-22.625,533.3333333333334,-22C561.1111111111111,-21.375,572.2222222222222,40.416666666666664,600,45C627.7777777777778,49.583333333333336,638.8888888888889,1.25,666.6666666666667,0C694.4444444444446,-1.25,707.6388888888889,36.916666666666664,733.3333333333334,39C759.0277777777778,41.083333333333336,778.1944444444445,16.041666666666664,790,10" transform="matrix(1,0,0,1,0,490)"></path><path d="M10,10C21.805555555555557,12.916666666666668,40.97222222222223,30.041666666666664,66.66666666666667,24C92.36111111111111,17.958333333333336,105.55555555555557,-19.208333333333332,133.33333333333334,-19C161.11111111111111,-18.791666666666668,172.22222222222223,26.25,200,25C227.77777777777777,23.75,238.8888888888889,-27.708333333333332,266.6666666666667,-25C294.44444444444446,-22.291666666666668,305.5555555555556,36.125,333.33333333333337,38C361.11111111111114,39.875,372.22222222222223,-16.833333333333332,400,-16C427.77777777777777,-15.166666666666666,438.8888888888889,43.25,466.6666666666667,42C494.44444444444446,40.75,505.5555555555556,-22.625,533.3333333333334,-22C561.1111111111111,-21.375,572.2222222222222,40.416666666666664,600,45C627.7777777777778,49.583333333333336,638.8888888888889,1.25,666.6666666666667,0C694.4444444444446,-1.25,707.6388888888889,36.916666666666664,733.3333333333334,39C759.0277777777778,41.083333333333336,778.1944444444445,16.041666666666664,790,10" transform="matrix(1,0,0,1,0,455)"></path><path d="M10,10C21.805555555555557,12.916666666666668,40.97222222222223,30.041666666666664,66.66666666666667,24C92.36111111111111,17.958333333333336,105.55555555555557,-19.208333333333332,133.33333333333334,-19C161.11111111111111,-18.791666666666668,172.22222222222223,26.25,200,25C227.77777777777777,23.75,238.8888888888889,-27.708333333333332,266.6666666666667,-25C294.44444444444446,-22.291666666666668,305.5555555555556,36.125,333.33333333333337,38C361.11111111111114,39.875,372.22222222222223,-16.833333333333332,400,-16C427.77777777777777,-15.166666666666666,438.8888888888889,43.25,466.6666666666667,42C494.44444444444446,40.75,505.5555555555556,-22.625,533.3333333333334,-22C561.1111111111111,-21.375,572.2222222222222,40.416666666666664,600,45C627.7777777777778,49.583333333333336,638.8888888888889,1.25,666.6666666666667,0C694.4444444444446,-1.25,707.6388888888889,36.916666666666664,733.3333333333334,39C759.0277777777778,41.083333333333336,778.1944444444445,16.041666666666664,790,10" transform="matrix(1,0,0,1,0,420)"></path><path d="M10,10C21.805555555555557,12.916666666666668,40.97222222222223,30.041666666666664,66.66666666666667,24C92.36111111111111,17.958333333333336,105.55555555555557,-19.208333333333332,133.33333333333334,-19C161.11111111111111,-18.791666666666668,172.22222222222223,26.25,200,25C227.77777777777777,23.75,238.8888888888889,-27.708333333333332,266.6666666666667,-25C294.44444444444446,-22.291666666666668,305.5555555555556,36.125,333.33333333333337,38C361.11111111111114,39.875,372.22222222222223,-16.833333333333332,400,-16C427.77777777777777,-15.166666666666666,438.8888888888889,43.25,466.6666666666667,42C494.44444444444446,40.75,505.5555555555556,-22.625,533.3333333333334,-22C561.1111111111111,-21.375,572.2222222222222,40.416666666666664,600,45C627.7777777777778,49.583333333333336,638.8888888888889,1.25,666.6666666666667,0C694.4444444444446,-1.25,707.6388888888889,36.916666666666664,733.3333333333334,39C759.0277777777778,41.083333333333336,778.1944444444445,16.041666666666664,790,10" transform="matrix(1,0,0,1,0,385)"></path><path d="M10,10C21.805555555555557,12.916666666666668,40.97222222222223,30.041666666666664,66.66666666666667,24C92.36111111111111,17.958333333333336,105.55555555555557,-19.208333333333332,133.33333333333334,-19C161.11111111111111,-18.791666666666668,172.22222222222223,26.25,200,25C227.77777777777777,23.75,238.8888888888889,-27.708333333333332,266.6666666666667,-25C294.44444444444446,-22.291666666666668,305.5555555555556,36.125,333.33333333333337,38C361.11111111111114,39.875,372.22222222222223,-16.833333333333332,400,-16C427.77777777777777,-15.166666666666666,438.8888888888889,43.25,466.6666666666667,42C494.44444444444446,40.75,505.5555555555556,-22.625,533.3333333333334,-22C561.1111111111111,-21.375,572.2222222222222,40.416666666666664,600,45C627.7777777777778,49.583333333333336,638.8888888888889,1.25,666.6666666666667,0C694.4444444444446,-1.25,707.6388888888889,36.916666666666664,733.3333333333334,39C759.0277777777778,41.083333333333336,778.1944444444445,16.041666666666664,790,10" transform="matrix(1,0,0,1,0,350)"></path><path d="M10,10C21.805555555555557,12.916666666666668,40.97222222222223,30.041666666666664,66.66666666666667,24C92.36111111111111,17.958333333333336,105.55555555555557,-19.208333333333332,133.33333333333334,-19C161.11111111111111,-18.791666666666668,172.22222222222223,26.25,200,25C227.77777777777777,23.75,238.8888888888889,-27.708333333333332,266.6666666666667,-25C294.44444444444446,-22.291666666666668,305.5555555555556,36.125,333.33333333333337,38C361.11111111111114,39.875,372.22222222222223,-16.833333333333332,400,-16C427.77777777777777,-15.166666666666666,438.8888888888889,43.25,466.6666666666667,42C494.44444444444446,40.75,505.5555555555556,-22.625,533.3333333333334,-22C561.1111111111111,-21.375,572.2222222222222,40.416666666666664,600,45C627.7777777777778,49.583333333333336,638.8888888888889,1.25,666.6666666666667,0C694.4444444444446,-1.25,707.6388888888889,36.916666666666664,733.3333333333334,39C759.0277777777778,41.083333333333336,778.1944444444445,16.041666666666664,790,10" transform="matrix(1,0,0,1,0,315)"></path><path d="M10,10C21.805555555555557,12.916666666666668,40.97222222222223,30.041666666666664,66.66666666666667,24C92.36111111111111,17.958333333333336,105.55555555555557,-19.208333333333332,133.33333333333334,-19C161.11111111111111,-18.791666666666668,172.22222222222223,26.25,200,25C227.77777777777777,23.75,238.8888888888889,-27.708333333333332,266.6666666666667,-25C294.44444444444446,-22.291666666666668,305.5555555555556,36.125,333.33333333333337,38C361.11111111111114,39.875,372.22222222222223,-16.833333333333332,400,-16C427.77777777777777,-15.166666666666666,438.8888888888889,43.25,466.6666666666667,42C494.44444444444446,40.75,505.5555555555556,-22.625,533.3333333333334,-22C561.1111111111111,-21.375,572.2222222222222,40.416666666666664,600,45C627.7777777777778,49.583333333333336,638.8888888888889,1.25,666.6666666666667,0C694.4444444444446,-1.25,707.6388888888889,36.916666666666664,733.3333333333334,39C759.0277777777778,41.083333333333336,778.1944444444445,16.041666666666664,790,10" transform="matrix(1,0,0,1,0,280)"></path><path d="M10,10C21.805555555555557,12.916666666666668,40.97222222222223,30.041666666666664,66.66666666666667,24C92.36111111111111,17.958333333333336,105.55555555555557,-19.208333333333332,133.33333333333334,-19C161.11111111111111,-18.791666666666668,172.22222222222223,26.25,200,25C227.77777777777777,23.75,238.8888888888889,-27.708333333333332,266.6666666666667,-25C294.44444444444446,-22.291666666666668,305.5555555555556,36.125,333.33333333333337,38C361.11111111111114,39.875,372.22222222222223,-16.833333333333332,400,-16C427.77777777777777,-15.166666666666666,438.8888888888889,43.25,466.6666666666667,42C494.44444444444446,40.75,505.5555555555556,-22.625,533.3333333333334,-22C561.1111111111111,-21.375,572.2222222222222,40.416666666666664,600,45C627.7777777777778,49.583333333333336,638.8888888888889,1.25,666.6666666666667,0C694.4444444444446,-1.25,707.6388888888889,36.916666666666664,733.3333333333334,39C759.0277777777778,41.083333333333336,778.1944444444445,16.041666666666664,790,10" transform="matrix(1,0,0,1,0,245)"></path><path d="M10,10C21.805555555555557,12.916666666666668,40.97222222222223,30.041666666666664,66.66666666666667,24C92.36111111111111,17.958333333333336,105.55555555555557,-19.208333333333332,133.33333333333334,-19C161.11111111111111,-18.791666666666668,172.22222222222223,26.25,200,25C227.77777777777777,23.75,238.8888888888889,-27.708333333333332,266.6666666666667,-25C294.44444444444446,-22.291666666666668,305.5555555555556,36.125,333.33333333333337,38C361.11111111111114,39.875,372.22222222222223,-16.833333333333332,400,-16C427.77777777777777,-15.166666666666666,438.8888888888889,43.25,466.6666666666667,42C494.44444444444446,40.75,505.5555555555556,-22.625,533.3333333333334,-22C561.1111111111111,-21.375,572.2222222222222,40.416666666666664,600,45C627.7777777777778,49.583333333333336,638.8888888888889,1.25,666.6666666666667,0C694.4444444444446,-1.25,707.6388888888889,36.916666666666664,733.3333333333334,39C759.0277777777778,41.083333333333336,778.1944444444445,16.041666666666664,790,10" transform="matrix(1,0,0,1,0,210)"></path><path d="M10,10C21.805555555555557,12.916666666666668,40.97222222222223,30.041666666666664,66.66666666666667,24C92.36111111111111,17.958333333333336,105.55555555555557,-19.208333333333332,133.33333333333334,-19C161.11111111111111,-18.791666666666668,172.22222222222223,26.25,200,25C227.77777777777777,23.75,238.8888888888889,-27.708333333333332,266.6666666666667,-25C294.44444444444446,-22.291666666666668,305.5555555555556,36.125,333.33333333333337,38C361.11111111111114,39.875,372.22222222222223,-16.833333333333332,400,-16C427.77777777777777,-15.166666666666666,438.8888888888889,43.25,466.6666666666667,42C494.44444444444446,40.75,505.5555555555556,-22.625,533.3333333333334,-22C561.1111111111111,-21.375,572.2222222222222,40.416666666666664,600,45C627.7777777777778,49.583333333333336,638.8888888888889,1.25,666.6666666666667,0C694.4444444444446,-1.25,707.6388888888889,36.916666666666664,733.3333333333334,39C759.0277777777778,41.083333333333336,778.1944444444445,16.041666666666664,790,10" transform="matrix(1,0,0,1,0,175)"></path><path d="M10,10C21.805555555555557,12.916666666666668,40.97222222222223,30.041666666666664,66.66666666666667,24C92.36111111111111,17.958333333333336,105.55555555555557,-19.208333333333332,133.33333333333334,-19C161.11111111111111,-18.791666666666668,172.22222222222223,26.25,200,25C227.77777777777777,23.75,238.8888888888889,-27.708333333333332,266.6666666666667,-25C294.44444444444446,-22.291666666666668,305.5555555555556,36.125,333.33333333333337,38C361.11111111111114,39.875,372.22222222222223,-16.833333333333332,400,-16C427.77777777777777,-15.166666666666666,438.8888888888889,43.25,466.6666666666667,42C494.44444444444446,40.75,505.5555555555556,-22.625,533.3333333333334,-22C561.1111111111111,-21.375,572.2222222222222,40.416666666666664,600,45C627.7777777777778,49.583333333333336,638.8888888888889,1.25,666.6666666666667,0C694.4444444444446,-1.25,707.6388888888889,36.916666666666664,733.3333333333334,39C759.0277777777778,41.083333333333336,778.1944444444445,16.041666666666664,790,10" transform="matrix(1,0,0,1,0,140)"></path><path d="M10,10C21.805555555555557,12.916666666666668,40.97222222222223,30.041666666666664,66.66666666666667,24C92.36111111111111,17.958333333333336,105.55555555555557,-19.208333333333332,133.33333333333334,-19C161.11111111111111,-18.791666666666668,172.22222222222223,26.25,200,25C227.77777777777777,23.75,238.8888888888889,-27.708333333333332,266.6666666666667,-25C294.44444444444446,-22.291666666666668,305.5555555555556,36.125,333.33333333333337,38C361.11111111111114,39.875,372.22222222222223,-16.833333333333332,400,-16C427.77777777777777,-15.166666666666666,438.8888888888889,43.25,466.6666666666667,42C494.44444444444446,40.75,505.5555555555556,-22.625,533.3333333333334,-22C561.1111111111111,-21.375,572.2222222222222,40.416666666666664,600,45C627.7777777777778,49.583333333333336,638.8888888888889,1.25,666.6666666666667,0C694.4444444444446,-1.25,707.6388888888889,36.916666666666664,733.3333333333334,39C759.0277777777778,41.083333333333336,778.1944444444445,16.041666666666664,790,10" transform="matrix(1,0,0,1,0,105)"></path><path d="M10,10C21.805555555555557,12.916666666666668,40.97222222222223,30.041666666666664,66.66666666666667,24C92.36111111111111,17.958333333333336,105.55555555555557,-19.208333333333332,133.33333333333334,-19C161.11111111111111,-18.791666666666668,172.22222222222223,26.25,200,25C227.77777777777777,23.75,238.8888888888889,-27.708333333333332,266.6666666666667,-25C294.44444444444446,-22.291666666666668,305.5555555555556,36.125,333.33333333333337,38C361.11111111111114,39.875,372.22222222222223,-16.833333333333332,400,-16C427.77777777777777,-15.166666666666666,438.8888888888889,43.25,466.6666666666667,42C494.44444444444446,40.75,505.5555555555556,-22.625,533.3333333333334,-22C561.1111111111111,-21.375,572.2222222222222,40.416666666666664,600,45C627.7777777777778,49.583333333333336,638.8888888888889,1.25,666.6666666666667,0C694.4444444444446,-1.25,707.6388888888889,36.916666666666664,733.3333333333334,39C759.0277777777778,41.083333333333336,778.1944444444445,16.041666666666664,790,10" transform="matrix(1,0,0,1,0,70)"></path><path d="M10,10C21.805555555555557,12.916666666666668,40.97222222222223,30.041666666666664,66.66666666666667,24C92.36111111111111,17.958333333333336,105.55555555555557,-19.208333333333332,133.33333333333334,-19C161.11111111111111,-18.791666666666668,172.22222222222223,26.25,200,25C227.77777777777777,23.75,238.8888888888889,-27.708333333333332,266.6666666666667,-25C294.44444444444446,-22.291666666666668,305.5555555555556,36.125,333.33333333333337,38C361.11111111111114,39.875,372.22222222222223,-16.833333333333332,400,-16C427.77777777777777,-15.166666666666666,438.8888888888889,43.25,466.6666666666667,42C494.44444444444446,40.75,505.5555555555556,-22.625,533.3333333333334,-22C561.1111111111111,-21.375,572.2222222222222,40.416666666666664,600,45C627.7777777777778,49.583333333333336,638.8888888888889,1.25,666.6666666666667,0C694.4444444444446,-1.25,707.6388888888889,36.916666666666664,733.3333333333334,39C759.0277777777778,41.083333333333336,778.1944444444445,16.041666666666664,790,10" transform="matrix(1,0,0,1,0,35)"></path></g></svg>